<?xml version="1.0" encoding="utf-8"?>
<svg width="88" height="88" viewBox="0 0 88 88" fill="none" xmlns="http://www.w3.org/2000/svg">
<rect width="88" height="88" rx="30" fill="url(#paint0_linear_855_580)"/>
<path d="M59.8055 27.63C56.7955 25.8239 53.6222 24.5388 50.3597 23.8144L46.9042 16.1287C46.4933 14.8585 45.3002 14.0001 43.9537 14.0001H43.815C42.4685 14.0001 41.2754 14.8635 40.8645 16.1287L37.409 23.8095C34.1416 24.5388 30.9583 25.8289 27.9434 27.6349C21.9532 39.2603 20.3294 50.5928 21.1413 61.7666C24.6513 65.1654 32.4336 69.368 36.607 71.0302C39.0526 72.0027 39.8001 72.4939 42.2506 72.9007C44.4289 73.516 45.0873 73.2778 46.7557 73.1042C49.3251 72.4195 50.3944 71.7248 51.434 71.1641C55.8499 68.8768 63.1174 65.1704 66.6274 61.7716C67.5779 48.8116 64.9986 37.5832 59.8055 27.625V27.63ZM37.5278 51.1485C35.6416 51.1485 34.0822 48.9009 34.0822 46.1322C34.0822 43.3636 35.5871 41.0961 37.5179 41.0961C39.4486 41.0961 40.9981 43.3636 40.9635 46.1322C40.9288 48.9009 39.4437 51.1485 37.5228 51.1485H37.5278ZM50.231 51.1485C48.3399 51.1485 46.7903 48.9009 46.7903 46.1322C46.7903 43.3636 48.2953 41.0961 50.231 41.0961C52.1667 41.0961 53.7014 43.3636 53.6667 46.1322C53.6321 48.9009 52.1518 51.1485 50.231 51.1485Z" fill="#FCFCFC"/>
<path d="M75.4051 56.1203L70.9793 42.1729C70.4347 40.4661 68.8555 39.3051 67.0633 39.3051C66.5287 39.3051 66.0089 39.4092 65.5287 39.6028C67.5485 46.3259 68.3604 53.5799 67.7267 61.484H71.4842C74.2665 61.484 76.2417 58.7749 75.4001 56.1203H75.4051Z" fill="#FCFCFC"/>
<path d="M12.1908 56.3835L16.6166 42.4361C17.1612 40.7292 18.7405 39.5682 20.5326 39.5682C21.0672 39.5682 21.587 39.6724 22.0673 39.8659C20.0474 46.589 19.2355 53.8431 19.8692 61.7471H16.1117C13.3295 61.7471 11.3542 59.038 12.1958 56.3835H12.1908Z" fill="#FCFCFC"/>
<defs>
<linearGradient id="paint0_linear_855_580" x1="44" y1="0" x2="44" y2="88" gradientUnits="userSpaceOnUse">
<stop stop-color="#FF8170"/>
<stop offset="1" stop-color="#FF5C45"/>
</linearGradient>
</defs>
</svg>